<svg width="100%" height="100%" viewBox="0 0 250 250">
    <line x1="0" y1="0" x2="250" y2="0" />
    <line x1="0" y1="50" x2="250" y2="50" />
    <line x1="0" y1="100" x2="250" y2="100" />
    <line x1="0" y1="150" x2="250" y2="150" />
    <line x1="0" y1="200" x2="250" y2="200" />
    <line x1="0" y1="250" x2="250" y2="250" />
    <line y1="0" x1="0" y2="250" x2="0" />
    <line y1="0" x1="50" y2="250" x2="50" />
    <line y1="0" x1="100" y2="250" x2="100" />
    <line y1="0" x1="150" y2="250" x2="150" />
    <line y1="0" x1="200" y2="250" x2="200" />
    <line y1="0" x1="250" y2="250" x2="250" />
    <circle cx="50" cy="50" r="4" stroke="none" />
    <circle cx="50" cy="200" r="4" stroke="none" />
    <circle cx="200" cy="50" r="4" stroke="none" />
    <circle cx="200" cy="200" r="4" stroke="none" />
</svg>