<svg width="100%" height="100%" viewBox="0 0 810 810">
    <line x1="0" y1="0" x2="810" y2="0" />
    <line x1="0" y1="90" x2="810" y2="90" />
    <line x1="0" y1="180" x2="810" y2="180" />
    <line x1="0" y1="270" x2="810" y2="270" />
    <line x1="0" y1="360" x2="810" y2="360" />
    <line x1="0" y1="450" x2="810" y2="450" />
    <line x1="0" y1="540" x2="810" y2="540" />
    <line x1="0" y1="630" x2="810" y2="630" />
    <line x1="0" y1="720" x2="810" y2="720" />
    <line x1="0" y1="810" x2="810" y2="810" />
    <line y1="0" x1="0" y2="810" x2="0" />
    <line y1="0" x1="90" y2="810" x2="90" />
    <line y1="0" x1="180" y2="810" x2="180" />
    <line y1="0" x1="270" y2="810" x2="270" />
    <line y1="0" x1="360" y2="810" x2="360" />
    <line y1="0" x1="450" y2="810" x2="450" />
    <line y1="0" x1="540" y2="810" x2="540" />
    <line y1="0" x1="630" y2="810" x2="630" />
    <line y1="0" x1="720" y2="810" x2="720" />
    <line y1="0" x1="810" y2="810" x2="810" />
    <circle cx="270" cy="270" r="10" stroke="none" />
    <circle cx="540" cy="270" r="10" stroke="none" />
    <circle cx="270" cy="540" r="10" stroke="none" />
    <circle cx="540" cy="540" r="10" stroke="none" />
</svg>